<svg width="129" height="14" viewBox="0 0 129 14" fill="none" xmlns="http://www.w3.org/2000/svg">
<path d="M0.694992 13V0.309999H6.49099C7.90699 0.309999 8.99899 0.651999 9.76699 1.336C10.535 2.02 10.919 2.974 10.919 4.198C10.919 5.146 10.673 5.938 10.181 6.574C9.70099 7.198 9.01099 7.624 8.11099 7.852C8.74699 8.044 9.26899 8.506 9.67699 9.238L11.729 13H8.65099L6.45499 8.95C6.27499 8.626 6.05299 8.404 5.78899 8.284C5.52499 8.152 5.21299 8.086 4.85299 8.086H3.48499V13H0.694992ZM3.48499 6.07H5.98699C7.48699 6.07 8.23699 5.47 8.23699 4.27C8.23699 3.082 7.48699 2.488 5.98699 2.488H3.48499V6.07ZM13.2282 13V0.309999H16.0182V13H13.2282ZM24.8364 13.198C23.4084 13.198 22.1964 12.928 21.2004 12.388C20.2164 11.848 19.4664 11.092 18.9504 10.12C18.4344 9.148 18.1764 8.008 18.1764 6.7C18.1764 5.356 18.4404 4.192 18.9684 3.208C19.5084 2.224 20.2824 1.462 21.2904 0.922C22.2984 0.382 23.5104 0.112 24.9264 0.112C25.8144 0.112 26.6544 0.237999 27.4464 0.489999C28.2504 0.741999 28.9044 1.078 29.4084 1.498L28.5084 3.676C27.9564 3.268 27.3924 2.98 26.8164 2.812C26.2404 2.632 25.6164 2.542 24.9444 2.542C23.6604 2.542 22.6944 2.902 22.0464 3.622C21.4104 4.33 21.0924 5.356 21.0924 6.7C21.0924 8.056 21.4164 9.082 22.0644 9.778C22.7244 10.474 23.6964 10.822 24.9804 10.822C25.6644 10.822 26.3844 10.714 27.1404 10.498V8.014H24.4044V5.998H29.4444V12.226C28.8204 12.538 28.1004 12.778 27.2844 12.946C26.4684 13.114 25.6524 13.198 24.8364 13.198ZM31.9137 13V0.309999H34.7037V5.404H40.6077V0.309999H43.3977V13H40.6077V7.726H34.7037V13H31.9137ZM48.9827 13V2.614H44.7887V0.309999H55.9667V2.614H51.7727V13H48.9827Z" fill="#BFBEBE"/>
<path d="M57.2057 13V0.309999H66.0617V2.866H60.5177V5.422H65.6657V7.96H60.5177V13H57.2057ZM67.6295 13V0.309999H70.9415V13H67.6295ZM76.225 13V3.01H72.193V0.309999H83.569V3.01H79.537V13H76.225ZM84.5509 13V10.12H87.4669V13H84.5509ZM95.0756 13.198C93.7076 13.198 92.5376 12.928 91.5656 12.388C90.5936 11.848 89.8436 11.092 89.3156 10.12C88.7996 9.136 88.5416 7.978 88.5416 6.646C88.5416 5.326 88.7996 4.18 89.3156 3.208C89.8436 2.224 90.5936 1.462 91.5656 0.922C92.5376 0.382 93.7076 0.112 95.0756 0.112C95.9156 0.112 96.7196 0.244 97.4876 0.508C98.2556 0.771999 98.8856 1.132 99.3776 1.588L98.5136 3.802C97.9736 3.382 97.4276 3.076 96.8756 2.884C96.3356 2.68 95.7656 2.578 95.1656 2.578C93.9536 2.578 93.0356 2.932 92.4116 3.64C91.7996 4.336 91.4936 5.338 91.4936 6.646C91.4936 7.954 91.7996 8.962 92.4116 9.67C93.0356 10.378 93.9536 10.732 95.1656 10.732C95.7656 10.732 96.3356 10.636 96.8756 10.444C97.4276 10.24 97.9736 9.928 98.5136 9.508L99.3776 11.722C98.8856 12.166 98.2556 12.526 97.4876 12.802C96.7196 13.066 95.9156 13.198 95.0756 13.198ZM106.653 13.198C105.405 13.198 104.307 12.928 103.359 12.388C102.423 11.836 101.691 11.074 101.163 10.102C100.647 9.118 100.389 7.966 100.389 6.646C100.389 5.326 100.647 4.18 101.163 3.208C101.691 2.224 102.423 1.462 103.359 0.922C104.295 0.382 105.393 0.112 106.653 0.112C107.913 0.112 109.011 0.382 109.947 0.922C110.895 1.462 111.627 2.224 112.143 3.208C112.671 4.18 112.935 5.32 112.935 6.628C112.935 7.948 112.671 9.1 112.143 10.084C111.627 11.068 110.895 11.836 109.947 12.388C109.011 12.928 107.913 13.198 106.653 13.198ZM106.653 10.822C107.709 10.822 108.531 10.456 109.119 9.724C109.719 8.98 110.019 7.954 110.019 6.646C110.019 5.326 109.725 4.306 109.137 3.586C108.549 2.854 107.721 2.488 106.653 2.488C105.609 2.488 104.787 2.854 104.187 3.586C103.599 4.306 103.305 5.326 103.305 6.646C103.305 7.954 103.599 8.98 104.187 9.724C104.787 10.456 105.609 10.822 106.653 10.822ZM115.129 13V0.309999H117.451L121.735 8.104L126.001 0.309999H128.287V13H125.749V5.26L122.473 11.092H120.907L117.649 5.314V13H115.129Z" fill="white"/>
</svg>
